solid CATIA STL
  facet normal -3.599737e-001 -8.692037e-001  3.389749e-001
    outer loop
      vertex -1.950000e+001 -2.499998e+001  4.080134e+000
      vertex -1.985355e+001 -2.462820e+001  4.657992e+000
      vertex -1.985355e+001 -2.485355e+001  4.080134e+000
    endloop
  endfacet
  facet normal -7.246431e-001 -6.891244e-001  -0.000000e+000
    outer loop
      vertex -1.950000e+001 -2.499998e+001  4.080134e+000
      vertex -1.950000e+001 -2.499998e+001  4.087114e+000
      vertex -1.985355e+001 -2.462820e+001  4.657992e+000
    endloop
  endfacet
  facet normal -3.577714e-001 -8.682042e-001  3.438328e-001
    outer loop
      vertex -1.950000e+001 -2.499998e+001  4.087114e+000
      vertex -1.950000e+001 -2.473361e+001  4.759702e+000
      vertex -1.985355e+001 -2.462820e+001  4.657992e+000
    endloop
  endfacet
  facet normal -3.629206e-001 -4.097265e-001  8.369067e-001
    outer loop
      vertex -1.985355e+001 -2.462820e+001  4.657992e+000
      vertex -1.950000e+001 -2.473361e+001  4.759702e+000
      vertex -1.985355e+001 -2.407113e+001  4.930718e+000
    endloop
  endfacet
  facet normal -3.602410e-001 -4.087217e-001  8.385541e-001
    outer loop
      vertex -1.950000e+001 -2.408333e+001  5.076655e+000
      vertex -1.985355e+001 -2.407113e+001  4.930718e+000
      vertex -1.950000e+001 -2.473361e+001  4.759702e+000
    endloop
  endfacet
  facet normal -9.137601e-001 -1.786323e-001  3.648740e-001
    outer loop
      vertex -1.985355e+001 -2.407113e+001  4.930718e+000
      vertex -2.000000e+001 -2.404167e+001  4.578395e+000
      vertex -1.985355e+001 -2.462820e+001  4.657992e+000
    endloop
  endfacet
  facet normal -9.133659e-001 -1.783837e-001  3.659809e-001
    outer loop
      vertex -1.985355e+001 -2.462820e+001  4.657992e+000
      vertex -2.000000e+001 -2.404167e+001  4.578395e+000
      vertex -2.000000e+001 -2.436681e+001  4.419918e+000
    endloop
  endfacet
  facet normal -9.140513e-001 -3.778800e-001  1.473669e-001
    outer loop
      vertex -1.985355e+001 -2.462820e+001  4.657992e+000
      vertex -2.000000e+001 -2.436681e+001  4.419918e+000
      vertex -1.985355e+001 -2.485355e+001  4.080134e+000
    endloop
  endfacet
  facet normal -9.128599e-001 -3.795892e-001  1.503288e-001
    outer loop
      vertex -1.985355e+001 -2.485355e+001  4.080134e+000
      vertex -2.000000e+001 -2.436681e+001  4.419918e+000
      vertex -2.000000e+001 -2.449999e+001  4.083624e+000
    endloop
  endfacet
  facet normal -9.238794e-001 -3.826819e-001  1.254866e-003
    outer loop
      vertex -1.985355e+001 -2.485355e+001  4.080134e+000
      vertex -2.000000e+001 -2.449999e+001  4.083624e+000
      vertex -2.000000e+001 -2.450000e+001  4.080134e+000
    endloop
  endfacet
  facet normal -3.574065e-001 -3.574065e-001 -8.628565e-001
    outer loop
      vertex -1.950000e+001 -2.400000e+001  0.000000e+000
      vertex -1.950000e+001 -2.470711e+001  2.928932e-001
      vertex -1.985355e+001 -2.400000e+001  1.464466e-001
    endloop
  endfacet
  facet normal -3.574067e-001 -3.574066e-001 -8.628563e-001
    outer loop
      vertex -1.985355e+001 -2.400000e+001  1.464466e-001
      vertex -1.950000e+001 -2.470711e+001  2.928932e-001
      vertex -1.985355e+001 -2.460355e+001  3.964466e-001
    endloop
  endfacet
  facet normal -9.124874e-001 -1.565576e-001 -3.779637e-001
    outer loop
      vertex -1.985355e+001 -2.400000e+001  1.464466e-001
      vertex -1.985355e+001 -2.460355e+001  3.964466e-001
      vertex -2.000000e+001 -2.400000e+001  5.000000e-001
    endloop
  endfacet
  facet normal -9.124873e-001 -1.565575e-001 -3.779638e-001
    outer loop
      vertex -2.000000e+001 -2.400000e+001  5.000000e-001
      vertex -1.985355e+001 -2.460355e+001  3.964466e-001
      vertex -2.000000e+001 -2.435355e+001  6.464466e-001
    endloop
  endfacet
  facet normal -3.574067e-001 -3.574064e-001  8.628563e-001
    outer loop
      vertex -1.950000e+001 -2.470711e+001  1.707107e+000
      vertex -1.950000e+001 -2.400000e+001  2.000000e+000
      vertex -1.985355e+001 -2.460355e+001  1.603553e+000
    endloop
  endfacet
  facet normal -3.574064e-001 -3.574066e-001  8.628564e-001
    outer loop
      vertex -1.985355e+001 -2.460355e+001  1.603553e+000
      vertex -1.950000e+001 -2.400000e+001  2.000000e+000
      vertex -1.985355e+001 -2.400000e+001  1.853553e+000
    endloop
  endfacet
  facet normal -9.124873e-001 -1.565576e-001  3.779637e-001
    outer loop
      vertex -1.985355e+001 -2.460355e+001  1.603553e+000
      vertex -1.985355e+001 -2.400000e+001  1.853553e+000
      vertex -2.000000e+001 -2.435355e+001  1.353553e+000
    endloop
  endfacet
  facet normal -9.124874e-001 -1.565575e-001  3.779636e-001
    outer loop
      vertex -2.000000e+001 -2.435355e+001  1.353553e+000
      vertex -1.985355e+001 -2.400000e+001  1.853553e+000
      vertex -2.000000e+001 -2.400000e+001  1.500000e+000
    endloop
  endfacet
  facet normal -3.574057e-001 -8.628569e-001  3.574060e-001
    outer loop
      vertex -1.950000e+001 -2.500000e+001  1.000000e+000
      vertex -1.950000e+001 -2.470711e+001  1.707107e+000
      vertex -1.985355e+001 -2.485355e+001  1.000000e+000
    endloop
  endfacet
  facet normal -3.574072e-001 -8.628560e-001  3.574066e-001
    outer loop
      vertex -1.985355e+001 -2.485355e+001  1.000000e+000
      vertex -1.950000e+001 -2.470711e+001  1.707107e+000
      vertex -1.985355e+001 -2.460355e+001  1.603553e+000
    endloop
  endfacet
  facet normal -9.124874e-001 -3.779633e-001  1.565575e-001
    outer loop
      vertex -1.985355e+001 -2.485355e+001  1.000000e+000
      vertex -1.985355e+001 -2.460355e+001  1.603553e+000
      vertex -2.000000e+001 -2.450000e+001  1.000000e+000
    endloop
  endfacet
  facet normal -9.124873e-001 -3.779640e-001  1.565574e-001
    outer loop
      vertex -2.000000e+001 -2.450000e+001  1.000000e+000
      vertex -1.985355e+001 -2.460355e+001  1.603553e+000
      vertex -2.000000e+001 -2.435355e+001  1.353553e+000
    endloop
  endfacet
  facet normal -3.574071e-001 -8.628564e-001 -3.574059e-001
    outer loop
      vertex -1.950000e+001 -2.470711e+001  2.928932e-001
      vertex -1.950000e+001 -2.500000e+001  1.000000e+000
      vertex -1.985355e+001 -2.460355e+001  3.964466e-001
    endloop
  endfacet
  facet normal -3.574056e-001 -8.628566e-001 -3.574069e-001
    outer loop
      vertex -1.985355e+001 -2.460355e+001  3.964466e-001
      vertex -1.950000e+001 -2.500000e+001  1.000000e+000
      vertex -1.985355e+001 -2.485355e+001  1.000000e+000
    endloop
  endfacet
  facet normal -9.124874e-001 -3.779637e-001 -1.565577e-001
    outer loop
      vertex -1.985355e+001 -2.460355e+001  3.964466e-001
      vertex -1.985355e+001 -2.485355e+001  1.000000e+000
      vertex -2.000000e+001 -2.435355e+001  6.464466e-001
    endloop
  endfacet
  facet normal -9.124876e-001 -3.779633e-001 -1.565571e-001
    outer loop
      vertex -2.000000e+001 -2.435355e+001  6.464466e-001
      vertex -1.985355e+001 -2.485355e+001  1.000000e+000
      vertex -2.000000e+001 -2.450000e+001  1.000000e+000
    endloop
  endfacet
  facet normal  0.000000e+000 -1.000000e+000  0.000000e+000
    outer loop
      vertex  1.950000e+001 -2.499998e+001  4.087114e+000
      vertex -1.950000e+001 -2.499998e+001  4.087114e+000
      vertex  1.950000e+001 -2.499998e+001  4.080134e+000
    endloop
  endfacet
  facet normal  0.000000e+000 -1.000000e+000  0.000000e+000
    outer loop
      vertex  1.950000e+001 -2.499998e+001  4.080134e+000
      vertex -1.950000e+001 -2.499998e+001  4.087114e+000
      vertex -1.950000e+001 -2.499998e+001  4.080134e+000
    endloop
  endfacet
  facet normal  0.000000e+000 -9.297448e-001  3.682046e-001
    outer loop
      vertex -1.950000e+001 -2.499998e+001  4.087114e+000
      vertex  1.950000e+001 -2.499998e+001  4.087114e+000
      vertex -1.950000e+001 -2.473361e+001  4.759702e+000
    endloop
  endfacet
  facet normal  0.000000e+000 -9.297448e-001  3.682046e-001
    outer loop
      vertex -1.950000e+001 -2.473361e+001  4.759702e+000
      vertex  1.950000e+001 -2.499998e+001  4.087114e+000
      vertex  1.950000e+001 -2.473361e+001  4.759702e+000
    endloop
  endfacet
  facet normal  0.000000e+000 -4.381387e-001  8.989074e-001
    outer loop
      vertex -1.950000e+001 -2.473361e+001  4.759702e+000
      vertex  1.950000e+001 -2.473361e+001  4.759702e+000
      vertex -1.950000e+001 -2.408333e+001  5.076655e+000
    endloop
  endfacet
  facet normal  0.000000e+000 -4.381387e-001  8.989074e-001
    outer loop
      vertex -1.950000e+001 -2.408333e+001  5.076655e+000
      vertex  1.950000e+001 -2.473361e+001  4.759702e+000
      vertex  1.950000e+001 -2.408333e+001  5.076655e+000
    endloop
  endfacet
  facet normal  0.000000e+000 -8.333333e-002  9.965217e-001
    outer loop
      vertex  1.950000e+001  2.391667e+001  9.090617e+000
      vertex -1.950000e+001  2.391667e+001  9.090617e+000
      vertex  1.950000e+001 -2.408333e+001  5.076655e+000
    endloop
  endfacet
  facet normal  0.000000e+000 -8.333333e-002  9.965217e-001
    outer loop
      vertex  1.950000e+001 -2.408333e+001  5.076655e+000
      vertex -1.950000e+001  2.391667e+001  9.090617e+000
      vertex -1.950000e+001 -2.408333e+001  5.076655e+000
    endloop
  endfacet
  facet normal  0.000000e+000  1.910918e-001  9.815722e-001
    outer loop
      vertex -1.950000e+001  2.391667e+001  9.090617e+000
      vertex  1.950000e+001  2.391667e+001  9.090617e+000
      vertex -1.950000e+001  2.445108e+001  8.986577e+000
    endloop
  endfacet
  facet normal  -0.000000e+000  1.910918e-001  9.815722e-001
    outer loop
      vertex -1.950000e+001  2.445108e+001  8.986577e+000
      vertex  1.950000e+001  2.391667e+001  9.090617e+000
      vertex  1.950000e+001  2.445108e+001  8.986577e+000
    endloop
  endfacet
  facet normal  0.000000e+000  6.770038e-001  7.359795e-001
    outer loop
      vertex -1.950000e+001  2.445108e+001  8.986577e+000
      vertex  1.950000e+001  2.445108e+001  8.986577e+000
      vertex -1.950000e+001  2.485179e+001  8.617983e+000
    endloop
  endfacet
  facet normal  -0.000000e+000  6.770038e-001  7.359795e-001
    outer loop
      vertex -1.950000e+001  2.485179e+001  8.617983e+000
      vertex  1.950000e+001  2.445108e+001  8.986577e+000
      vertex  1.950000e+001  2.485179e+001  8.617983e+000
    endloop
  endfacet
  facet normal  0.000000e+000  9.622337e-001  2.722244e-001
    outer loop
      vertex -1.950000e+001  2.485179e+001  8.617983e+000
      vertex  1.950000e+001  2.485179e+001  8.617983e+000
      vertex -1.950000e+001  2.500000e+001  8.094095e+000
    endloop
  endfacet
  facet normal  -0.000000e+000  9.622337e-001  2.722244e-001
    outer loop
      vertex -1.950000e+001  2.500000e+001  8.094095e+000
      vertex  1.950000e+001  2.485179e+001  8.617983e+000
      vertex  1.950000e+001  2.500000e+001  8.094095e+000
    endloop
  endfacet
  facet normal  0.000000e+000  1.000000e+000  0.000000e+000
    outer loop
      vertex -1.950000e+001  2.500000e+001  8.094095e+000
      vertex  1.950000e+001  2.500000e+001  8.094095e+000
      vertex -1.950000e+001  2.500000e+001  1.000000e+000
    endloop
  endfacet
  facet normal  0.000000e+000  1.000000e+000  0.000000e+000
    outer loop
      vertex -1.950000e+001  2.500000e+001  1.000000e+000
      vertex  1.950000e+001  2.500000e+001  8.094095e+000
      vertex  1.950000e+001  2.500000e+001  1.000000e+000
    endloop
  endfacet
  facet normal  0.000000e+000  9.238799e-001 -3.826826e-001
    outer loop
      vertex -1.950000e+001  2.500000e+001  1.000000e+000
      vertex  1.950000e+001  2.500000e+001  1.000000e+000
      vertex -1.950000e+001  2.470711e+001  2.928932e-001
    endloop
  endfacet
  facet normal  0.000000e+000  9.238799e-001 -3.826826e-001
    outer loop
      vertex -1.950000e+001  2.470711e+001  2.928932e-001
      vertex  1.950000e+001  2.500000e+001  1.000000e+000
      vertex  1.950000e+001  2.470711e+001  2.928932e-001
    endloop
  endfacet
  facet normal  0.000000e+000  3.826831e-001 -9.238796e-001
    outer loop
      vertex -1.950000e+001  2.470711e+001  2.928932e-001
      vertex  1.950000e+001  2.470711e+001  2.928932e-001
      vertex -1.950000e+001  2.400000e+001  0.000000e+000
    endloop
  endfacet
  facet normal  0.000000e+000  3.826831e-001 -9.238796e-001
    outer loop
      vertex -1.950000e+001  2.400000e+001  0.000000e+000
      vertex  1.950000e+001  2.470711e+001  2.928932e-001
      vertex  1.950000e+001  2.400000e+001  0.000000e+000
    endloop
  endfacet
  facet normal  0.000000e+000  0.000000e+000 -1.000000e+000
    outer loop
      vertex  1.950000e+001 -2.400000e+001  0.000000e+000
      vertex -1.950000e+001 -2.400000e+001  0.000000e+000
      vertex  1.950000e+001  2.400000e+001  0.000000e+000
    endloop
  endfacet
  facet normal  -0.000000e+000  0.000000e+000 -1.000000e+000
    outer loop
      vertex  1.950000e+001  2.400000e+001  0.000000e+000
      vertex -1.950000e+001 -2.400000e+001  0.000000e+000
      vertex -1.950000e+001  2.400000e+001  0.000000e+000
    endloop
  endfacet
  facet normal  -0.000000e+000 -3.826831e-001 -9.238796e-001
    outer loop
      vertex -1.950000e+001 -2.400000e+001  0.000000e+000
      vertex  1.950000e+001 -2.400000e+001  0.000000e+000
      vertex -1.950000e+001 -2.470711e+001  2.928932e-001
    endloop
  endfacet
  facet normal  0.000000e+000 -3.826831e-001 -9.238796e-001
    outer loop
      vertex -1.950000e+001 -2.470711e+001  2.928932e-001
      vertex  1.950000e+001 -2.400000e+001  0.000000e+000
      vertex  1.950000e+001 -2.470711e+001  2.928932e-001
    endloop
  endfacet
  facet normal  -0.000000e+000 -9.238799e-001 -3.826826e-001
    outer loop
      vertex -1.950000e+001 -2.470711e+001  2.928932e-001
      vertex  1.950000e+001 -2.470711e+001  2.928932e-001
      vertex -1.950000e+001 -2.500000e+001  1.000000e+000
    endloop
  endfacet
  facet normal  0.000000e+000 -9.238799e-001 -3.826826e-001
    outer loop
      vertex -1.950000e+001 -2.500000e+001  1.000000e+000
      vertex  1.950000e+001 -2.470711e+001  2.928932e-001
      vertex  1.950000e+001 -2.500000e+001  1.000000e+000
    endloop
  endfacet
  facet normal  0.000000e+000 -9.238800e-001  3.826826e-001
    outer loop
      vertex -1.950000e+001 -2.500000e+001  1.000000e+000
      vertex  1.950000e+001 -2.500000e+001  1.000000e+000
      vertex -1.950000e+001 -2.470711e+001  1.707107e+000
    endloop
  endfacet
  facet normal  0.000000e+000 -9.238800e-001  3.826826e-001
    outer loop
      vertex -1.950000e+001 -2.470711e+001  1.707107e+000
      vertex  1.950000e+001 -2.500000e+001  1.000000e+000
      vertex  1.950000e+001 -2.470711e+001  1.707107e+000
    endloop
  endfacet
  facet normal  0.000000e+000 -3.826830e-001  9.238797e-001
    outer loop
      vertex -1.950000e+001 -2.470711e+001  1.707107e+000
      vertex  1.950000e+001 -2.470711e+001  1.707107e+000
      vertex -1.950000e+001 -2.400000e+001  2.000000e+000
    endloop
  endfacet
  facet normal  0.000000e+000 -3.826830e-001  9.238797e-001
    outer loop
      vertex -1.950000e+001 -2.400000e+001  2.000000e+000
      vertex  1.950000e+001 -2.470711e+001  1.707107e+000
      vertex  1.950000e+001 -2.400000e+001  2.000000e+000
    endloop
  endfacet
  facet normal  -0.000000e+000  0.000000e+000  1.000000e+000
    outer loop
      vertex  1.950000e+001  2.183304e+001  2.000000e+000
      vertex -1.950000e+001  2.183304e+001  2.000000e+000
      vertex  1.950000e+001 -2.400000e+001  2.000000e+000
    endloop
  endfacet
  facet normal  0.000000e+000  0.000000e+000  1.000000e+000
    outer loop
      vertex  1.950000e+001 -2.400000e+001  2.000000e+000
      vertex -1.950000e+001  2.183304e+001  2.000000e+000
      vertex -1.950000e+001 -2.400000e+001  2.000000e+000
    endloop
  endfacet
  facet normal  0.000000e+000 -9.238800e-001  3.826826e-001
    outer loop
      vertex -1.950000e+001  2.283304e+001  3.000000e+000
      vertex -1.950000e+001  2.254015e+001  2.292893e+000
      vertex  1.950000e+001  2.283304e+001  3.000000e+000
    endloop
  endfacet
  facet normal  0.000000e+000 -9.238800e-001  3.826826e-001
    outer loop
      vertex  1.950000e+001  2.283304e+001  3.000000e+000
      vertex -1.950000e+001  2.254015e+001  2.292893e+000
      vertex  1.950000e+001  2.254015e+001  2.292893e+000
    endloop
  endfacet
  facet normal  0.000000e+000 -3.826830e-001  9.238797e-001
    outer loop
      vertex -1.950000e+001  2.254015e+001  2.292893e+000
      vertex -1.950000e+001  2.183304e+001  2.000000e+000
      vertex  1.950000e+001  2.254015e+001  2.292893e+000
    endloop
  endfacet
  facet normal  0.000000e+000 -3.826830e-001  9.238797e-001
    outer loop
      vertex  1.950000e+001  2.254015e+001  2.292893e+000
      vertex -1.950000e+001  2.183304e+001  2.000000e+000
      vertex  1.950000e+001  2.183304e+001  2.000000e+000
    endloop
  endfacet
  facet normal  0.000000e+000 -1.000000e+000  0.000000e+000
    outer loop
      vertex -1.950000e+001  2.283304e+001  5.912885e+000
      vertex -1.950000e+001  2.283304e+001  3.000000e+000
      vertex  1.950000e+001  2.283304e+001  5.912885e+000
    endloop
  endfacet
  facet normal  0.000000e+000 -1.000000e+000  -0.000000e+000
    outer loop
      vertex  1.950000e+001  2.283304e+001  5.912885e+000
      vertex -1.950000e+001  2.283304e+001  3.000000e+000
      vertex  1.950000e+001  2.283304e+001  3.000000e+000
    endloop
  endfacet
  facet normal  -0.000000e+000 -1.910916e-001 -9.815722e-001
    outer loop
      vertex -1.950000e+001  2.228413e+001  6.805367e+000
      vertex  1.950000e+001  2.174971e+001  6.909407e+000
      vertex -1.950000e+001  2.174971e+001  6.909407e+000
    endloop
  endfacet
  facet normal  0.000000e+000 -1.910916e-001 -9.815722e-001
    outer loop
      vertex  1.950000e+001  2.174971e+001  6.909407e+000
      vertex -1.950000e+001  2.228413e+001  6.805367e+000
      vertex  1.950000e+001  2.228413e+001  6.805367e+000
    endloop
  endfacet
  facet normal  -0.000000e+000 -6.770038e-001 -7.359795e-001
    outer loop
      vertex  1.950000e+001  2.228413e+001  6.805367e+000
      vertex -1.950000e+001  2.228413e+001  6.805367e+000
      vertex -1.950000e+001  2.268483e+001  6.436773e+000
    endloop
  endfacet
  facet normal  0.000000e+000 -6.770038e-001 -7.359795e-001
    outer loop
      vertex  1.950000e+001  2.228413e+001  6.805367e+000
      vertex -1.950000e+001  2.268483e+001  6.436773e+000
      vertex  1.950000e+001  2.268483e+001  6.436773e+000
    endloop
  endfacet
  facet normal  -0.000000e+000 -9.622339e-001 -2.722242e-001
    outer loop
      vertex  1.950000e+001  2.268483e+001  6.436773e+000
      vertex -1.950000e+001  2.268483e+001  6.436773e+000
      vertex -1.950000e+001  2.283304e+001  5.912885e+000
    endloop
  endfacet
  facet normal  0.000000e+000 -9.622339e-001 -2.722242e-001
    outer loop
      vertex  1.950000e+001  2.268483e+001  6.436773e+000
      vertex -1.950000e+001  2.283304e+001  5.912885e+000
      vertex  1.950000e+001  2.283304e+001  5.912885e+000
    endloop
  endfacet
  facet normal  0.000000e+000  8.333334e-002 -9.965217e-001
    outer loop
      vertex  1.950000e+001 -2.391667e+001  3.090593e+000
      vertex -1.950000e+001 -2.391667e+001  3.090593e+000
      vertex  1.950000e+001  2.174971e+001  6.909407e+000
    endloop
  endfacet
  facet normal  0.000000e+000  8.333334e-002 -9.965217e-001
    outer loop
      vertex  1.950000e+001  2.174971e+001  6.909407e+000
      vertex -1.950000e+001 -2.391667e+001  3.090593e+000
      vertex -1.950000e+001  2.174971e+001  6.909407e+000
    endloop
  endfacet
  facet normal  -0.000000e+000 -1.899497e-001 -9.817938e-001
    outer loop
      vertex -1.950000e+001 -2.391667e+001  3.090593e+000
      vertex  1.950000e+001 -2.391667e+001  3.090593e+000
      vertex -1.950000e+001 -2.444901e+001  3.193586e+000
    endloop
  endfacet
  facet normal  0.000000e+000 -1.899497e-001 -9.817938e-001
    outer loop
      vertex -1.950000e+001 -2.444901e+001  3.193586e+000
      vertex  1.950000e+001 -2.391667e+001  3.090593e+000
      vertex  1.950000e+001 -2.444901e+001  3.193586e+000
    endloop
  endfacet
  facet normal  -0.000000e+000 -6.744296e-001 -7.383392e-001
    outer loop
      vertex -1.950000e+001 -2.444901e+001  3.193586e+000
      vertex  1.950000e+001 -2.444901e+001  3.193586e+000
      vertex -1.950000e+001 -2.484934e+001  3.559268e+000
    endloop
  endfacet
  facet normal  0.000000e+000 -6.744296e-001 -7.383392e-001
    outer loop
      vertex -1.950000e+001 -2.484934e+001  3.559268e+000
      vertex  1.950000e+001 -2.444901e+001  3.193586e+000
      vertex  1.950000e+001 -2.484934e+001  3.559268e+000
    endloop
  endfacet
  facet normal  -0.000000e+000 -9.606342e-001 -2.778163e-001
    outer loop
      vertex -1.950000e+001 -2.484934e+001  3.559268e+000
      vertex  1.950000e+001 -2.484934e+001  3.559268e+000
      vertex -1.950000e+001 -2.499998e+001  4.080134e+000
    endloop
  endfacet
  facet normal  0.000000e+000 -9.606342e-001 -2.778163e-001
    outer loop
      vertex -1.950000e+001 -2.499998e+001  4.080134e+000
      vertex  1.950000e+001 -2.484934e+001  3.559268e+000
      vertex  1.950000e+001 -2.499998e+001  4.080134e+000
    endloop
  endfacet
  facet normal -1.000000e+000  0.000000e+000  0.000000e+000
    outer loop
      vertex -2.000000e+001 -2.436681e+001  4.419918e+000
      vertex -2.000000e+001 -2.404167e+001  4.578395e+000
      vertex -2.000000e+001 -2.449999e+001  4.083624e+000
    endloop
  endfacet
  facet normal -9.999999e-001  0.000000e+000  0.000000e+000
    outer loop
      vertex -2.000000e+001  2.170804e+001  7.407668e+000
      vertex -2.000000e+001 -2.395833e+001  3.588854e+000
      vertex -2.000000e+001 -2.450000e+001  4.080134e+000
    endloop
  endfacet
  facet normal -1.000000e+000  0.000000e+000  0.000000e+000
    outer loop
      vertex -2.000000e+001  2.170804e+001  7.407668e+000
      vertex -2.000000e+001 -2.450000e+001  4.080134e+000
      vertex -2.000000e+001 -2.449999e+001  4.083624e+000
    endloop
  endfacet
  facet normal -1.000000e+000  0.000000e+000  0.000000e+000
    outer loop
      vertex -2.000000e+001  2.170804e+001  7.407668e+000
      vertex -2.000000e+001 -2.449999e+001  4.083624e+000
      vertex -2.000000e+001 -2.404167e+001  4.578395e+000
    endloop
  endfacet
  facet normal -1.000000e+000  0.000000e+000  0.000000e+000
    outer loop
      vertex -2.000000e+001  2.170804e+001  7.407668e+000
      vertex -2.000000e+001 -2.404167e+001  4.578395e+000
      vertex -2.000000e+001  2.395833e+001  8.592357e+000
    endloop
  endfacet
  facet normal -1.000000e+000  0.000000e+000  -0.000000e+000
    outer loop
      vertex -2.000000e+001  2.170804e+001  7.407668e+000
      vertex -2.000000e+001  2.395833e+001  8.592357e+000
      vertex -2.000000e+001  2.422554e+001  8.540337e+000
    endloop
  endfacet
  facet normal -1.000000e+000  0.000000e+000  -0.000000e+000
    outer loop
      vertex -2.000000e+001  2.170804e+001  7.407668e+000
      vertex -2.000000e+001  2.422554e+001  8.540337e+000
      vertex -2.000000e+001  2.442589e+001  8.356039e+000
    endloop
  endfacet
  facet normal -1.000000e+000  0.000000e+000  -0.000000e+000
    outer loop
      vertex -2.000000e+001  2.170804e+001  7.407668e+000
      vertex -2.000000e+001  2.442589e+001  8.356039e+000
      vertex -2.000000e+001  2.450000e+001  8.094095e+000
    endloop
  endfacet
  facet normal -1.000000e+000  0.000000e+000  0.000000e+000
    outer loop
      vertex -2.000000e+001  2.450000e+001  8.094095e+000
      vertex -2.000000e+001  2.450000e+001  1.000000e+000
      vertex -2.000000e+001  2.333304e+001  3.000000e+000
    endloop
  endfacet
  facet normal -1.000000e+000  0.000000e+000  0.000000e+000
    outer loop
      vertex -2.000000e+001  2.450000e+001  8.094095e+000
      vertex -2.000000e+001  2.333304e+001  3.000000e+000
      vertex -2.000000e+001  2.333304e+001  5.912885e+000
    endloop
  endfacet
  facet normal -1.000000e+000  0.000000e+000  0.000000e+000
    outer loop
      vertex -2.000000e+001  2.450000e+001  8.094095e+000
      vertex -2.000000e+001  2.333304e+001  5.912885e+000
      vertex -2.000000e+001  2.311072e+001  6.698717e+000
    endloop
  endfacet
  facet normal -1.000000e+000  0.000000e+000  0.000000e+000
    outer loop
      vertex -2.000000e+001  2.450000e+001  8.094095e+000
      vertex -2.000000e+001  2.311072e+001  6.698717e+000
      vertex -2.000000e+001  2.250967e+001  7.251608e+000
    endloop
  endfacet
  facet normal -1.000000e+000  0.000000e+000  0.000000e+000
    outer loop
      vertex -2.000000e+001  2.450000e+001  8.094095e+000
      vertex -2.000000e+001  2.250967e+001  7.251608e+000
      vertex -2.000000e+001  2.170804e+001  7.407668e+000
    endloop
  endfacet
  facet normal -1.000000e+000  0.000000e+000  0.000000e+000
    outer loop
      vertex -2.000000e+001  2.450000e+001  1.000000e+000
      vertex -2.000000e+001  2.435355e+001  6.464466e-001
      vertex -2.000000e+001 -2.435355e+001  6.464466e-001
    endloop
  endfacet
  facet normal -1.000000e+000  0.000000e+000  0.000000e+000
    outer loop
      vertex -2.000000e+001  2.450000e+001  1.000000e+000
      vertex -2.000000e+001 -2.435355e+001  6.464466e-001
      vertex -2.000000e+001 -2.450000e+001  1.000000e+000
    endloop
  endfacet
  facet normal -1.000000e+000  0.000000e+000  0.000000e+000
    outer loop
      vertex -2.000000e+001  2.450000e+001  1.000000e+000
      vertex -2.000000e+001 -2.450000e+001  1.000000e+000
      vertex -2.000000e+001 -2.435355e+001  1.353553e+000
    endloop
  endfacet
  facet normal -1.000000e+000  0.000000e+000  0.000000e+000
    outer loop
      vertex -2.000000e+001  2.450000e+001  1.000000e+000
      vertex -2.000000e+001 -2.435355e+001  1.353553e+000
      vertex -2.000000e+001 -2.400000e+001  1.500000e+000
    endloop
  endfacet
  facet normal -1.000000e+000  0.000000e+000  0.000000e+000
    outer loop
      vertex -2.000000e+001  2.450000e+001  1.000000e+000
      vertex -2.000000e+001 -2.400000e+001  1.500000e+000
      vertex -2.000000e+001  2.183304e+001  1.500000e+000
    endloop
  endfacet
  facet normal -1.000000e+000  0.000000e+000  0.000000e+000
    outer loop
      vertex -2.000000e+001  2.450000e+001  1.000000e+000
      vertex -2.000000e+001  2.183304e+001  1.500000e+000
      vertex -2.000000e+001  2.289370e+001  1.939340e+000
    endloop
  endfacet
  facet normal -1.000000e+000  0.000000e+000  0.000000e+000
    outer loop
      vertex -2.000000e+001  2.450000e+001  1.000000e+000
      vertex -2.000000e+001  2.289370e+001  1.939340e+000
      vertex -2.000000e+001  2.333304e+001  3.000000e+000
    endloop
  endfacet
  facet normal -1.000000e+000  0.000000e+000  0.000000e+000
    outer loop
      vertex -2.000000e+001 -2.442344e+001  3.821218e+000
      vertex -2.000000e+001 -2.450000e+001  4.080134e+000
      vertex -2.000000e+001 -2.422346e+001  3.639829e+000
    endloop
  endfacet
  facet normal -1.000000e+000  0.000000e+000  0.000000e+000
    outer loop
      vertex -2.000000e+001 -2.422346e+001  3.639829e+000
      vertex -2.000000e+001 -2.450000e+001  4.080134e+000
      vertex -2.000000e+001 -2.395833e+001  3.588854e+000
    endloop
  endfacet
  facet normal -1.000000e+000  0.000000e+000  0.000000e+000
    outer loop
      vertex -2.000000e+001 -2.400000e+001  5.000000e-001
      vertex -2.000000e+001 -2.435355e+001  6.464466e-001
      vertex -2.000000e+001  2.400000e+001  5.000000e-001
    endloop
  endfacet
  facet normal -9.999999e-001  0.000000e+000  0.000000e+000
    outer loop
      vertex -2.000000e+001  2.400000e+001  5.000000e-001
      vertex -2.000000e+001 -2.435355e+001  6.464466e-001
      vertex -2.000000e+001  2.435355e+001  6.464466e-001
    endloop
  endfacet
  facet normal -8.903152e-001  1.476061e-001  4.307568e-001
    outer loop
      vertex -2.000000e+001  2.422554e+001  8.540337e+000
      vertex -1.985355e+001  2.392887e+001  8.944680e+000
      vertex -1.985355e+001  2.457786e+001  8.722294e+000
    endloop
  endfacet
  facet normal -5.087275e-001  7.883489e-001  3.459805e-001
    outer loop
      vertex -1.985355e+001  2.457786e+001  8.722294e+000
      vertex -1.950000e+001  2.485179e+001  8.617983e+000
      vertex -1.985355e+001  2.485355e+001  8.094095e+000
    endloop
  endfacet
  facet normal -9.185125e-001  7.555643e-002  3.881058e-001
    outer loop
      vertex -2.000000e+001  2.395833e+001  8.592357e+000
      vertex -1.985355e+001  2.392887e+001  8.944680e+000
      vertex -2.000000e+001  2.422554e+001  8.540337e+000
    endloop
  endfacet
  facet normal -3.702443e-001  8.938521e-001  2.528787e-001
    outer loop
      vertex -1.950000e+001  2.500000e+001  8.094095e+000
      vertex -1.985355e+001  2.485355e+001  8.094095e+000
      vertex -1.950000e+001  2.485179e+001  8.617983e+000
    endloop
  endfacet
  facet normal -3.546392e-001  3.030938e-001  8.845142e-001
    outer loop
      vertex -1.985355e+001  2.392887e+001  8.944680e+000
      vertex -1.950000e+001  2.391667e+001  9.090617e+000
      vertex -1.985355e+001  2.457786e+001  8.722294e+000
    endloop
  endfacet
  facet normal -5.538604e-001  1.591048e-001  8.172663e-001
    outer loop
      vertex -1.985355e+001  2.457786e+001  8.722294e+000
      vertex -1.950000e+001  2.391667e+001  9.090617e+000
      vertex -1.950000e+001  2.445108e+001  8.986577e+000
    endloop
  endfacet
  facet normal -2.938262e-001  6.471201e-001  7.034925e-001
    outer loop
      vertex -1.985355e+001  2.457786e+001  8.722294e+000
      vertex -1.950000e+001  2.445108e+001  8.986577e+000
      vertex -1.950000e+001  2.485179e+001  8.617983e+000
    endloop
  endfacet
  facet normal -9.111198e-001  3.773968e-001  1.656271e-001
    outer loop
      vertex -1.985355e+001  2.485355e+001  8.094095e+000
      vertex -2.000000e+001  2.450000e+001  8.094095e+000
      vertex -1.985355e+001  2.457786e+001  8.722294e+000
    endloop
  endfacet
  facet normal -8.592005e-001  4.923164e-001  1.392807e-001
    outer loop
      vertex -1.985355e+001  2.457786e+001  8.722294e+000
      vertex -2.000000e+001  2.450000e+001  8.094095e+000
      vertex -2.000000e+001  2.442589e+001  8.356039e+000
    endloop
  endfacet
  facet normal -9.306391e-001  2.477418e-001  2.693226e-001
    outer loop
      vertex -1.985355e+001  2.457786e+001  8.722294e+000
      vertex -2.000000e+001  2.442589e+001  8.356039e+000
      vertex -2.000000e+001  2.422554e+001  8.540337e+000
    endloop
  endfacet
  facet normal -3.826822e-001  9.238800e-001  0.000000e+000
    outer loop
      vertex -1.950000e+001  2.500000e+001  8.094095e+000
      vertex -1.950000e+001  2.500000e+001  1.000000e+000
      vertex -1.985355e+001  2.485355e+001  8.094095e+000
    endloop
  endfacet
  facet normal -3.826822e-001  9.238800e-001  0.000000e+000
    outer loop
      vertex -1.985355e+001  2.485355e+001  8.094095e+000
      vertex -1.950000e+001  2.500000e+001  1.000000e+000
      vertex -1.985355e+001  2.485355e+001  1.000000e+000
    endloop
  endfacet
  facet normal -9.238800e-001  3.826822e-001  0.000000e+000
    outer loop
      vertex -1.985355e+001  2.485355e+001  8.094095e+000
      vertex -1.985355e+001  2.485355e+001  1.000000e+000
      vertex -2.000000e+001  2.450000e+001  8.094095e+000
    endloop
  endfacet
  facet normal -9.238800e-001  3.826822e-001  0.000000e+000
    outer loop
      vertex -2.000000e+001  2.450000e+001  8.094095e+000
      vertex -1.985355e+001  2.485355e+001  1.000000e+000
      vertex -2.000000e+001  2.450000e+001  1.000000e+000
    endloop
  endfacet
  facet normal -3.574057e-001  8.628569e-001 -3.574061e-001
    outer loop
      vertex -1.950000e+001  2.500000e+001  1.000000e+000
      vertex -1.950000e+001  2.470711e+001  2.928932e-001
      vertex -1.985355e+001  2.485355e+001  1.000000e+000
    endloop
  endfacet
  facet normal -3.574072e-001  8.628560e-001 -3.574066e-001
    outer loop
      vertex -1.985355e+001  2.485355e+001  1.000000e+000
      vertex -1.950000e+001  2.470711e+001  2.928932e-001
      vertex -1.985355e+001  2.460355e+001  3.964466e-001
    endloop
  endfacet
  facet normal -9.124874e-001  3.779633e-001 -1.565575e-001
    outer loop
      vertex -1.985355e+001  2.485355e+001  1.000000e+000
      vertex -1.985355e+001  2.460355e+001  3.964466e-001
      vertex -2.000000e+001  2.450000e+001  1.000000e+000
    endloop
  endfacet
  facet normal -9.124873e-001  3.779640e-001 -1.565574e-001
    outer loop
      vertex -2.000000e+001  2.450000e+001  1.000000e+000
      vertex -1.985355e+001  2.460355e+001  3.964466e-001
      vertex -2.000000e+001  2.435355e+001  6.464466e-001
    endloop
  endfacet
  facet normal -3.574067e-001  3.574064e-001 -8.628563e-001
    outer loop
      vertex -1.950000e+001  2.470711e+001  2.928932e-001
      vertex -1.950000e+001  2.400000e+001  0.000000e+000
      vertex -1.985355e+001  2.460355e+001  3.964466e-001
    endloop
  endfacet
  facet normal -3.574064e-001  3.574066e-001 -8.628564e-001
    outer loop
      vertex -1.985355e+001  2.460355e+001  3.964466e-001
      vertex -1.950000e+001  2.400000e+001  0.000000e+000
      vertex -1.985355e+001  2.400000e+001  1.464466e-001
    endloop
  endfacet
  facet normal -9.124873e-001  1.565576e-001 -3.779637e-001
    outer loop
      vertex -1.985355e+001  2.460355e+001  3.964466e-001
      vertex -1.985355e+001  2.400000e+001  1.464466e-001
      vertex -2.000000e+001  2.435355e+001  6.464466e-001
    endloop
  endfacet
  facet normal -9.124874e-001  1.565575e-001 -3.779637e-001
    outer loop
      vertex -2.000000e+001  2.435355e+001  6.464466e-001
      vertex -1.985355e+001  2.400000e+001  1.464466e-001
      vertex -2.000000e+001  2.400000e+001  5.000000e-001
    endloop
  endfacet
  facet normal -9.238799e-001  -0.000000e+000 -3.826826e-001
    outer loop
      vertex -2.000000e+001 -2.400000e+001  5.000000e-001
      vertex -2.000000e+001  2.400000e+001  5.000000e-001
      vertex -1.985355e+001 -2.400000e+001  1.464466e-001
    endloop
  endfacet
  facet normal -9.238799e-001  0.000000e+000 -3.826826e-001
    outer loop
      vertex -1.985355e+001 -2.400000e+001  1.464466e-001
      vertex -2.000000e+001  2.400000e+001  5.000000e-001
      vertex -1.985355e+001  2.400000e+001  1.464466e-001
    endloop
  endfacet
  facet normal -3.826831e-001  -0.000000e+000 -9.238797e-001
    outer loop
      vertex -1.985355e+001 -2.400000e+001  1.464466e-001
      vertex -1.985355e+001  2.400000e+001  1.464466e-001
      vertex -1.950000e+001 -2.400000e+001  0.000000e+000
    endloop
  endfacet
  facet normal -3.826831e-001  0.000000e+000 -9.238797e-001
    outer loop
      vertex -1.950000e+001 -2.400000e+001  0.000000e+000
      vertex -1.985355e+001  2.400000e+001  1.464466e-001
      vertex -1.950000e+001  2.400000e+001  0.000000e+000
    endloop
  endfacet
  facet normal -9.238799e-001  0.000000e+000  3.826826e-001
    outer loop
      vertex -2.000000e+001  2.183304e+001  1.500000e+000
      vertex -2.000000e+001 -2.400000e+001  1.500000e+000
      vertex -1.985355e+001  2.183304e+001  1.853553e+000
    endloop
  endfacet
  facet normal -9.238799e-001  0.000000e+000  3.826826e-001
    outer loop
      vertex -1.985355e+001  2.183304e+001  1.853553e+000
      vertex -2.000000e+001 -2.400000e+001  1.500000e+000
      vertex -1.985355e+001 -2.400000e+001  1.853553e+000
    endloop
  endfacet
  facet normal -3.826830e-001  0.000000e+000  9.238797e-001
    outer loop
      vertex -1.985355e+001  2.183304e+001  1.853553e+000
      vertex -1.985355e+001 -2.400000e+001  1.853553e+000
      vertex -1.950000e+001  2.183304e+001  2.000000e+000
    endloop
  endfacet
  facet normal -3.826830e-001  0.000000e+000  9.238797e-001
    outer loop
      vertex -1.950000e+001  2.183304e+001  2.000000e+000
      vertex -1.985355e+001 -2.400000e+001  1.853553e+000
      vertex -1.950000e+001 -2.400000e+001  2.000000e+000
    endloop
  endfacet
  facet normal -9.124867e-001 -3.779650e-001  1.565578e-001
    outer loop
      vertex -2.000000e+001  2.333304e+001  3.000000e+000
      vertex -2.000000e+001  2.289370e+001  1.939340e+000
      vertex -1.985355e+001  2.297949e+001  3.000000e+000
    endloop
  endfacet
  facet normal -9.124874e-001 -3.779635e-001  1.565578e-001
    outer loop
      vertex -1.985355e+001  2.297949e+001  3.000000e+000
      vertex -2.000000e+001  2.289370e+001  1.939340e+000
      vertex -1.985355e+001  2.264370e+001  2.189340e+000
    endloop
  endfacet
  facet normal -3.574096e-001 -8.628550e-001  3.574067e-001
    outer loop
      vertex -1.985355e+001  2.297949e+001  3.000000e+000
      vertex -1.985355e+001  2.264370e+001  2.189340e+000
      vertex -1.950000e+001  2.283304e+001  3.000000e+000
    endloop
  endfacet
  facet normal -3.574070e-001 -8.628564e-001  3.574059e-001
    outer loop
      vertex -1.950000e+001  2.283304e+001  3.000000e+000
      vertex -1.985355e+001  2.264370e+001  2.189340e+000
      vertex -1.950000e+001  2.254015e+001  2.292893e+000
    endloop
  endfacet
  facet normal -9.124873e-001 -1.565576e-001  3.779638e-001
    outer loop
      vertex -2.000000e+001  2.289370e+001  1.939340e+000
      vertex -2.000000e+001  2.183304e+001  1.500000e+000
      vertex -1.985355e+001  2.264370e+001  2.189340e+000
    endloop
  endfacet
  facet normal -9.124874e-001 -1.565575e-001  3.779637e-001
    outer loop
      vertex -1.985355e+001  2.264370e+001  2.189340e+000
      vertex -2.000000e+001  2.183304e+001  1.500000e+000
      vertex -1.985355e+001  2.183304e+001  1.853553e+000
    endloop
  endfacet
  facet normal -3.574065e-001 -3.574064e-001  8.628565e-001
    outer loop
      vertex -1.985355e+001  2.264370e+001  2.189340e+000
      vertex -1.985355e+001  2.183304e+001  1.853553e+000
      vertex -1.950000e+001  2.254015e+001  2.292893e+000
    endloop
  endfacet
  facet normal -3.574064e-001 -3.574064e-001  8.628565e-001
    outer loop
      vertex -1.950000e+001  2.254015e+001  2.292893e+000
      vertex -1.985355e+001  2.183304e+001  1.853553e+000
      vertex -1.950000e+001  2.183304e+001  2.000000e+000
    endloop
  endfacet
  facet normal -9.238793e-001 -3.826840e-001  0.000000e+000
    outer loop
      vertex -2.000000e+001  2.333304e+001  5.912885e+000
      vertex -2.000000e+001  2.333304e+001  3.000000e+000
      vertex -1.985355e+001  2.297949e+001  5.912885e+000
    endloop
  endfacet
  facet normal -9.238793e-001 -3.826840e-001  -0.000000e+000
    outer loop
      vertex -1.985355e+001  2.297949e+001  5.912885e+000
      vertex -2.000000e+001  2.333304e+001  3.000000e+000
      vertex -1.985355e+001  2.297949e+001  3.000000e+000
    endloop
  endfacet
  facet normal -3.826865e-001 -9.238783e-001  0.000000e+000
    outer loop
      vertex -1.985355e+001  2.297949e+001  5.912885e+000
      vertex -1.985355e+001  2.297949e+001  3.000000e+000
      vertex -1.950000e+001  2.283304e+001  5.912885e+000
    endloop
  endfacet
  facet normal -3.826865e-001 -9.238783e-001  -0.000000e+000
    outer loop
      vertex -1.950000e+001  2.283304e+001  5.912885e+000
      vertex -1.985355e+001  2.297949e+001  3.000000e+000
      vertex -1.950000e+001  2.283304e+001  3.000000e+000
    endloop
  endfacet
  facet normal -1.653731e-001 -3.196992e-001 -9.329761e-001
    outer loop
      vertex -1.950000e+001  2.228413e+001  6.805367e+000
      vertex -1.985355e+001  2.173750e+001  7.055345e+000
      vertex -1.985355e+001  2.260919e+001  6.756647e+000
    endloop
  endfacet
  facet normal -9.479485e-001 -2.915798e-001 -1.279644e-001
    outer loop
      vertex -1.985355e+001  2.260919e+001  6.756647e+000
      vertex -2.000000e+001  2.311072e+001  6.698717e+000
      vertex -1.985355e+001  2.297949e+001  5.912885e+000
    endloop
  endfacet
  facet normal -3.702450e-001 -1.775115e-001 -9.118159e-001
    outer loop
      vertex -1.950000e+001  2.174971e+001  6.909407e+000
      vertex -1.985355e+001  2.173750e+001  7.055345e+000
      vertex -1.950000e+001  2.228413e+001  6.805367e+000
    endloop
  endfacet
  facet normal -9.185119e-001 -3.804608e-001 -1.076356e-001
    outer loop
      vertex -2.000000e+001  2.333304e+001  5.912885e+000
      vertex -1.985355e+001  2.297949e+001  5.912885e+000
      vertex -2.000000e+001  2.311072e+001  6.698717e+000
    endloop
  endfacet
  facet normal -9.111197e-001 -1.336010e-001 -3.898868e-001
    outer loop
      vertex -1.985355e+001  2.173750e+001  7.055345e+000
      vertex -2.000000e+001  2.170804e+001  7.407668e+000
      vertex -1.985355e+001  2.260919e+001  6.756647e+000
    endloop
  endfacet
  facet normal -9.541510e-001 -5.719856e-002 -2.938097e-001
    outer loop
      vertex -1.985355e+001  2.260919e+001  6.756647e+000
      vertex -2.000000e+001  2.170804e+001  7.407668e+000
      vertex -2.000000e+001  2.250967e+001  7.251608e+000
    endloop
  endfacet
  facet normal -8.968372e-001 -2.994798e-001 -3.255683e-001
    outer loop
      vertex -1.985355e+001  2.260919e+001  6.756647e+000
      vertex -2.000000e+001  2.250967e+001  7.251608e+000
      vertex -2.000000e+001  2.311072e+001  6.698717e+000
    endloop
  endfacet
  facet normal -3.546440e-001 -8.561784e-001 -3.757476e-001
    outer loop
      vertex -1.985355e+001  2.297949e+001  5.912885e+000
      vertex -1.950000e+001  2.283304e+001  5.912885e+000
      vertex -1.985355e+001  2.260919e+001  6.756647e+000
    endloop
  endfacet
  facet normal -4.040248e-002 -9.614482e-001 -2.720020e-001
    outer loop
      vertex -1.985355e+001  2.260919e+001  6.756647e+000
      vertex -1.950000e+001  2.283304e+001  5.912885e+000
      vertex -1.950000e+001  2.268483e+001  6.436773e+000
    endloop
  endfacet
  facet normal -4.620742e-001 -6.003948e-001 -6.526970e-001
    outer loop
      vertex -1.985355e+001  2.260919e+001  6.756647e+000
      vertex -1.950000e+001  2.268483e+001  6.436773e+000
      vertex -1.950000e+001  2.228413e+001  6.805367e+000
    endloop
  endfacet
  facet normal -9.238798e-001  3.189024e-002 -3.813518e-001
    outer loop
      vertex -2.000000e+001 -2.395833e+001  3.588854e+000
      vertex -2.000000e+001  2.170804e+001  7.407668e+000
      vertex -1.985355e+001 -2.392887e+001  3.236530e+000
    endloop
  endfacet
  facet normal -9.238797e-001  3.189026e-002 -3.813519e-001
    outer loop
      vertex -1.985355e+001 -2.392887e+001  3.236530e+000
      vertex -2.000000e+001  2.170804e+001  7.407668e+000
      vertex -1.985355e+001  2.173750e+001  7.055345e+000
    endloop
  endfacet
  facet normal -3.826829e-001  7.698999e-002 -9.206662e-001
    outer loop
      vertex -1.985355e+001 -2.392887e+001  3.236530e+000
      vertex -1.985355e+001  2.173750e+001  7.055345e+000
      vertex -1.950000e+001 -2.391667e+001  3.090593e+000
    endloop
  endfacet
  facet normal -3.826834e-001  7.698996e-002 -9.206660e-001
    outer loop
      vertex -1.950000e+001 -2.391667e+001  3.090593e+000
      vertex -1.985355e+001  2.173750e+001  7.055345e+000
      vertex -1.950000e+001  2.174971e+001  6.909407e+000
    endloop
  endfacet
  facet normal -8.905725e-001 -1.466915e-001 -4.305371e-001
    outer loop
      vertex -2.000000e+001 -2.422346e+001  3.639829e+000
      vertex -1.985355e+001 -2.392887e+001  3.236530e+000
      vertex -1.985355e+001 -2.457566e+001  3.456903e+000
    endloop
  endfacet
  facet normal -5.075558e-001 -7.869351e-001 -3.508850e-001
    outer loop
      vertex -1.985355e+001 -2.457566e+001  3.456903e+000
      vertex -1.950000e+001 -2.484934e+001  3.559268e+000
      vertex -1.985355e+001 -2.485355e+001  4.080134e+000
    endloop
  endfacet
  facet normal -9.186066e-001 -7.461150e-002 -3.880656e-001
    outer loop
      vertex -2.000000e+001 -2.395833e+001  3.588854e+000
      vertex -1.985355e+001 -2.392887e+001  3.236530e+000
      vertex -2.000000e+001 -2.422346e+001  3.639829e+000
    endloop
  endfacet
  facet normal -3.696590e-001 -8.925902e-001 -2.581379e-001
    outer loop
      vertex -1.950000e+001 -2.499998e+001  4.080134e+000
      vertex -1.985355e+001 -2.485355e+001  4.080134e+000
      vertex -1.950000e+001 -2.484934e+001  3.559268e+000
    endloop
  endfacet
  facet normal -3.548767e-001 -3.015202e-001 -8.849565e-001
    outer loop
      vertex -1.985355e+001 -2.392887e+001  3.236530e+000
      vertex -1.950000e+001 -2.391667e+001  3.090593e+000
      vertex -1.985355e+001 -2.457566e+001  3.456903e+000
    endloop
  endfacet
  facet normal -5.526791e-001 -1.583030e-001 -8.182213e-001
    outer loop
      vertex -1.985355e+001 -2.457566e+001  3.456903e+000
      vertex -1.950000e+001 -2.391667e+001  3.090593e+000
      vertex -1.950000e+001 -2.444901e+001  3.193586e+000
    endloop
  endfacet
  facet normal -2.946052e-001 -6.444978e-001 -7.055711e-001
    outer loop
      vertex -1.985355e+001 -2.457566e+001  3.456903e+000
      vertex -1.950000e+001 -2.444901e+001  3.193586e+000
      vertex -1.950000e+001 -2.484934e+001  3.559268e+000
    endloop
  endfacet
  facet normal -9.107171e-001 -3.772300e-001 -1.682024e-001
    outer loop
      vertex -1.985355e+001 -2.485355e+001  4.080134e+000
      vertex -2.000000e+001 -2.450000e+001  4.080134e+000
      vertex -1.985355e+001 -2.457566e+001  3.456903e+000
    endloop
  endfacet
  facet normal -8.622243e-001 -4.857349e-001 -1.436347e-001
    outer loop
      vertex -1.985355e+001 -2.457566e+001  3.456903e+000
      vertex -2.000000e+001 -2.450000e+001  4.080134e+000
      vertex -2.000000e+001 -2.442344e+001  3.821218e+000
    endloop
  endfacet
  facet normal -9.305319e-001 -2.460388e-001 -2.712474e-001
    outer loop
      vertex -1.985355e+001 -2.457566e+001  3.456903e+000
      vertex -2.000000e+001 -2.442344e+001  3.821218e+000
      vertex -2.000000e+001 -2.422346e+001  3.639829e+000
    endloop
  endfacet
  facet normal -9.238800e-001 -3.189021e-002  3.813515e-001
    outer loop
      vertex -2.000000e+001  2.395833e+001  8.592357e+000
      vertex -2.000000e+001 -2.404167e+001  4.578395e+000
      vertex -1.985355e+001  2.392887e+001  8.944680e+000
    endloop
  endfacet
  facet normal -9.238800e-001 -3.189021e-002  3.813515e-001
    outer loop
      vertex -1.985355e+001  2.392887e+001  8.944680e+000
      vertex -2.000000e+001 -2.404167e+001  4.578395e+000
      vertex -1.985355e+001 -2.407113e+001  4.930718e+000
    endloop
  endfacet
  facet normal -3.826831e-001 -7.698998e-002  9.206662e-001
    outer loop
      vertex -1.985355e+001  2.392887e+001  8.944680e+000
      vertex -1.985355e+001 -2.407113e+001  4.930718e+000
      vertex -1.950000e+001  2.391667e+001  9.090617e+000
    endloop
  endfacet
  facet normal -3.826831e-001 -7.698998e-002  9.206662e-001
    outer loop
      vertex -1.950000e+001  2.391667e+001  9.090617e+000
      vertex -1.985355e+001 -2.407113e+001  4.930718e+000
      vertex -1.950000e+001 -2.408333e+001  5.076655e+000
    endloop
  endfacet
  facet normal  9.137602e-001 -3.784905e-001  1.476050e-001
    outer loop
      vertex  2.000000e+001 -2.450000e+001  4.080134e+000
      vertex  1.985355e+001 -2.462820e+001  4.657992e+000
      vertex  1.985355e+001 -2.485355e+001  4.080134e+000
    endloop
  endfacet
  facet normal  6.641310e-001 -7.476122e-001  2.451522e-003
    outer loop
      vertex  2.000000e+001 -2.450000e+001  4.080134e+000
      vertex  2.000000e+001 -2.449999e+001  4.083624e+000
      vertex  1.985355e+001 -2.462820e+001  4.657992e+000
    endloop
  endfacet
  facet normal  9.143512e-001 -3.764739e-001  1.490951e-001
    outer loop
      vertex  2.000000e+001 -2.449999e+001  4.083624e+000
      vertex  2.000000e+001 -2.436681e+001  4.419918e+000
      vertex  1.985355e+001 -2.462820e+001  4.657992e+000
    endloop
  endfacet
  facet normal  9.134706e-001 -1.789183e-001  3.654583e-001
    outer loop
      vertex  1.985355e+001 -2.462820e+001  4.657992e+000
      vertex  2.000000e+001 -2.436681e+001  4.419918e+000
      vertex  1.985355e+001 -2.407113e+001  4.930718e+000
    endloop
  endfacet
  facet normal  9.138623e-001 -1.778949e-001  3.649782e-001
    outer loop
      vertex  2.000000e+001 -2.404167e+001  4.578395e+000
      vertex  1.985355e+001 -2.407113e+001  4.930718e+000
      vertex  2.000000e+001 -2.436681e+001  4.419918e+000
    endloop
  endfacet
  facet normal  3.600283e-001 -4.102196e-001  8.379138e-001
    outer loop
      vertex  1.985355e+001 -2.407113e+001  4.930718e+000
      vertex  1.950000e+001 -2.408333e+001  5.076655e+000
      vertex  1.985355e+001 -2.462820e+001  4.657992e+000
    endloop
  endfacet
  facet normal  3.627207e-001 -4.083005e-001  8.376899e-001
    outer loop
      vertex  1.985355e+001 -2.462820e+001  4.657992e+000
      vertex  1.950000e+001 -2.408333e+001  5.076655e+000
      vertex  1.950000e+001 -2.473361e+001  4.759702e+000
    endloop
  endfacet
  facet normal  3.570946e-001 -8.702338e-001  3.393767e-001
    outer loop
      vertex  1.985355e+001 -2.462820e+001  4.657992e+000
      vertex  1.950000e+001 -2.473361e+001  4.759702e+000
      vertex  1.985355e+001 -2.485355e+001  4.080134e+000
    endloop
  endfacet
  facet normal  3.652159e-001 -8.655207e-001  3.427700e-001
    outer loop
      vertex  1.985355e+001 -2.485355e+001  4.080134e+000
      vertex  1.950000e+001 -2.473361e+001  4.759702e+000
      vertex  1.950000e+001 -2.499998e+001  4.087114e+000
    endloop
  endfacet
  facet normal  3.826270e-001 -9.239030e-001  0.000000e+000
    outer loop
      vertex  1.985355e+001 -2.485355e+001  4.080134e+000
      vertex  1.950000e+001 -2.499998e+001  4.087114e+000
      vertex  1.950000e+001 -2.499998e+001  4.080134e+000
    endloop
  endfacet
  facet normal  9.124874e-001 -1.565575e-001 -3.779637e-001
    outer loop
      vertex  2.000000e+001 -2.400000e+001  5.000000e-001
      vertex  2.000000e+001 -2.435355e+001  6.464466e-001
      vertex  1.985355e+001 -2.400000e+001  1.464466e-001
    endloop
  endfacet
  facet normal  9.124873e-001 -1.565576e-001 -3.779637e-001
    outer loop
      vertex  1.985355e+001 -2.400000e+001  1.464466e-001
      vertex  2.000000e+001 -2.435355e+001  6.464466e-001
      vertex  1.985355e+001 -2.460355e+001  3.964466e-001
    endloop
  endfacet
  facet normal  3.574064e-001 -3.574066e-001 -8.628564e-001
    outer loop
      vertex  1.985355e+001 -2.400000e+001  1.464466e-001
      vertex  1.985355e+001 -2.460355e+001  3.964466e-001
      vertex  1.950000e+001 -2.400000e+001  0.000000e+000
    endloop
  endfacet
  facet normal  3.574067e-001 -3.574064e-001 -8.628563e-001
    outer loop
      vertex  1.950000e+001 -2.400000e+001  0.000000e+000
      vertex  1.985355e+001 -2.460355e+001  3.964466e-001
      vertex  1.950000e+001 -2.470711e+001  2.928932e-001
    endloop
  endfacet
  facet normal  9.124874e-001 -1.565575e-001  3.779638e-001
    outer loop
      vertex  2.000000e+001 -2.435355e+001  1.353553e+000
      vertex  2.000000e+001 -2.400000e+001  1.500000e+000
      vertex  1.985355e+001 -2.460355e+001  1.603553e+000
    endloop
  endfacet
  facet normal  9.124874e-001 -1.565576e-001  3.779636e-001
    outer loop
      vertex  1.985355e+001 -2.460355e+001  1.603553e+000
      vertex  2.000000e+001 -2.400000e+001  1.500000e+000
      vertex  1.985355e+001 -2.400000e+001  1.853553e+000
    endloop
  endfacet
  facet normal  3.574068e-001 -3.574066e-001  8.628563e-001
    outer loop
      vertex  1.985355e+001 -2.460355e+001  1.603553e+000
      vertex  1.985355e+001 -2.400000e+001  1.853553e+000
      vertex  1.950000e+001 -2.470711e+001  1.707107e+000
    endloop
  endfacet
  facet normal  3.574064e-001 -3.574064e-001  8.628565e-001
    outer loop
      vertex  1.950000e+001 -2.470711e+001  1.707107e+000
      vertex  1.985355e+001 -2.400000e+001  1.853553e+000
      vertex  1.950000e+001 -2.400000e+001  2.000000e+000
    endloop
  endfacet
  facet normal  9.124876e-001 -3.779633e-001  1.565571e-001
    outer loop
      vertex  2.000000e+001 -2.450000e+001  1.000000e+000
      vertex  2.000000e+001 -2.435355e+001  1.353553e+000
      vertex  1.985355e+001 -2.485355e+001  1.000000e+000
    endloop
  endfacet
  facet normal  9.124874e-001 -3.779637e-001  1.565577e-001
    outer loop
      vertex  1.985355e+001 -2.485355e+001  1.000000e+000
      vertex  2.000000e+001 -2.435355e+001  1.353553e+000
      vertex  1.985355e+001 -2.460355e+001  1.603553e+000
    endloop
  endfacet
  facet normal  3.574056e-001 -8.628566e-001  3.574069e-001
    outer loop
      vertex  1.985355e+001 -2.485355e+001  1.000000e+000
      vertex  1.985355e+001 -2.460355e+001  1.603553e+000
      vertex  1.950000e+001 -2.500000e+001  1.000000e+000
    endloop
  endfacet
  facet normal  3.574071e-001 -8.628563e-001  3.574058e-001
    outer loop
      vertex  1.950000e+001 -2.500000e+001  1.000000e+000
      vertex  1.985355e+001 -2.460355e+001  1.603553e+000
      vertex  1.950000e+001 -2.470711e+001  1.707107e+000
    endloop
  endfacet
  facet normal  9.124873e-001 -3.779640e-001 -1.565574e-001
    outer loop
      vertex  2.000000e+001 -2.435355e+001  6.464466e-001
      vertex  2.000000e+001 -2.450000e+001  1.000000e+000
      vertex  1.985355e+001 -2.460355e+001  3.964466e-001
    endloop
  endfacet
  facet normal  9.124874e-001 -3.779633e-001 -1.565575e-001
    outer loop
      vertex  1.985355e+001 -2.460355e+001  3.964466e-001
      vertex  2.000000e+001 -2.450000e+001  1.000000e+000
      vertex  1.985355e+001 -2.485355e+001  1.000000e+000
    endloop
  endfacet
  facet normal  3.574072e-001 -8.628560e-001 -3.574066e-001
    outer loop
      vertex  1.985355e+001 -2.460355e+001  3.964466e-001
      vertex  1.985355e+001 -2.485355e+001  1.000000e+000
      vertex  1.950000e+001 -2.470711e+001  2.928932e-001
    endloop
  endfacet
  facet normal  3.574057e-001 -8.628569e-001 -3.574061e-001
    outer loop
      vertex  1.950000e+001 -2.470711e+001  2.928932e-001
      vertex  1.985355e+001 -2.485355e+001  1.000000e+000
      vertex  1.950000e+001 -2.500000e+001  1.000000e+000
    endloop
  endfacet
  facet normal  1.000000e+000  0.000000e+000  0.000000e+000
    outer loop
      vertex  2.000000e+001 -2.449999e+001  4.083624e+000
      vertex  2.000000e+001 -2.404167e+001  4.578395e+000
      vertex  2.000000e+001 -2.436681e+001  4.419918e+000
    endloop
  endfacet
  facet normal  1.000000e+000  0.000000e+000  0.000000e+000
    outer loop
      vertex  2.000000e+001  2.170804e+001  7.407668e+000
      vertex  2.000000e+001  2.450000e+001  8.094095e+000
      vertex  2.000000e+001  2.442589e+001  8.356039e+000
    endloop
  endfacet
  facet normal  1.000000e+000  0.000000e+000  0.000000e+000
    outer loop
      vertex  2.000000e+001  2.170804e+001  7.407668e+000
      vertex  2.000000e+001  2.442589e+001  8.356039e+000
      vertex  2.000000e+001  2.422554e+001  8.540337e+000
    endloop
  endfacet
  facet normal  1.000000e+000  0.000000e+000  0.000000e+000
    outer loop
      vertex  2.000000e+001  2.170804e+001  7.407668e+000
      vertex  2.000000e+001  2.422554e+001  8.540337e+000
      vertex  2.000000e+001  2.395833e+001  8.592357e+000
    endloop
  endfacet
  facet normal  1.000000e+000  0.000000e+000  0.000000e+000
    outer loop
      vertex  2.000000e+001  2.170804e+001  7.407668e+000
      vertex  2.000000e+001  2.395833e+001  8.592357e+000
      vertex  2.000000e+001 -2.404167e+001  4.578395e+000
    endloop
  endfacet
  facet normal  1.000000e+000  -0.000000e+000  0.000000e+000
    outer loop
      vertex  2.000000e+001  2.170804e+001  7.407668e+000
      vertex  2.000000e+001 -2.404167e+001  4.578395e+000
      vertex  2.000000e+001 -2.449999e+001  4.083624e+000
    endloop
  endfacet
  facet normal  1.000000e+000  -0.000000e+000  0.000000e+000
    outer loop
      vertex  2.000000e+001  2.170804e+001  7.407668e+000
      vertex  2.000000e+001 -2.449999e+001  4.083624e+000
      vertex  2.000000e+001 -2.450000e+001  4.080134e+000
    endloop
  endfacet
  facet normal  9.999999e-001  -0.000000e+000  0.000000e+000
    outer loop
      vertex  2.000000e+001  2.170804e+001  7.407668e+000
      vertex  2.000000e+001 -2.450000e+001  4.080134e+000
      vertex  2.000000e+001 -2.395833e+001  3.588854e+000
    endloop
  endfacet
  facet normal  1.000000e+000  -0.000000e+000  0.000000e+000
    outer loop
      vertex  2.000000e+001  2.450000e+001  8.094095e+000
      vertex  2.000000e+001  2.170804e+001  7.407668e+000
      vertex  2.000000e+001  2.250967e+001  7.251608e+000
    endloop
  endfacet
  facet normal  1.000000e+000  -0.000000e+000  0.000000e+000
    outer loop
      vertex  2.000000e+001  2.450000e+001  8.094095e+000
      vertex  2.000000e+001  2.250967e+001  7.251608e+000
      vertex  2.000000e+001  2.311072e+001  6.698717e+000
    endloop
  endfacet
  facet normal  1.000000e+000  -0.000000e+000  0.000000e+000
    outer loop
      vertex  2.000000e+001  2.450000e+001  8.094095e+000
      vertex  2.000000e+001  2.311072e+001  6.698717e+000
      vertex  2.000000e+001  2.333304e+001  5.912885e+000
    endloop
  endfacet
  facet normal  1.000000e+000  -0.000000e+000  0.000000e+000
    outer loop
      vertex  2.000000e+001  2.450000e+001  8.094095e+000
      vertex  2.000000e+001  2.333304e+001  5.912885e+000
      vertex  2.000000e+001  2.333304e+001  3.000000e+000
    endloop
  endfacet
  facet normal  1.000000e+000  -0.000000e+000  0.000000e+000
    outer loop
      vertex  2.000000e+001  2.450000e+001  8.094095e+000
      vertex  2.000000e+001  2.333304e+001  3.000000e+000
      vertex  2.000000e+001  2.450000e+001  1.000000e+000
    endloop
  endfacet
  facet normal  1.000000e+000  0.000000e+000  0.000000e+000
    outer loop
      vertex  2.000000e+001  2.450000e+001  1.000000e+000
      vertex  2.000000e+001  2.333304e+001  3.000000e+000
      vertex  2.000000e+001  2.289370e+001  1.939340e+000
    endloop
  endfacet
  facet normal  1.000000e+000  0.000000e+000  0.000000e+000
    outer loop
      vertex  2.000000e+001  2.450000e+001  1.000000e+000
      vertex  2.000000e+001  2.289370e+001  1.939340e+000
      vertex  2.000000e+001  2.183304e+001  1.500000e+000
    endloop
  endfacet
  facet normal  1.000000e+000  0.000000e+000  0.000000e+000
    outer loop
      vertex  2.000000e+001  2.450000e+001  1.000000e+000
      vertex  2.000000e+001  2.183304e+001  1.500000e+000
      vertex  2.000000e+001 -2.400000e+001  1.500000e+000
    endloop
  endfacet
  facet normal  1.000000e+000  0.000000e+000  0.000000e+000
    outer loop
      vertex  2.000000e+001  2.450000e+001  1.000000e+000
      vertex  2.000000e+001 -2.400000e+001  1.500000e+000
      vertex  2.000000e+001 -2.435355e+001  1.353553e+000
    endloop
  endfacet
  facet normal  1.000000e+000  0.000000e+000  0.000000e+000
    outer loop
      vertex  2.000000e+001  2.450000e+001  1.000000e+000
      vertex  2.000000e+001 -2.435355e+001  1.353553e+000
      vertex  2.000000e+001 -2.450000e+001  1.000000e+000
    endloop
  endfacet
  facet normal  1.000000e+000  -0.000000e+000  0.000000e+000
    outer loop
      vertex  2.000000e+001  2.450000e+001  1.000000e+000
      vertex  2.000000e+001 -2.450000e+001  1.000000e+000
      vertex  2.000000e+001 -2.435355e+001  6.464466e-001
    endloop
  endfacet
  facet normal  1.000000e+000  0.000000e+000  0.000000e+000
    outer loop
      vertex  2.000000e+001  2.450000e+001  1.000000e+000
      vertex  2.000000e+001 -2.435355e+001  6.464466e-001
      vertex  2.000000e+001  2.435355e+001  6.464466e-001
    endloop
  endfacet
  facet normal  1.000000e+000  0.000000e+000  0.000000e+000
    outer loop
      vertex  2.000000e+001 -2.442344e+001  3.821218e+000
      vertex  2.000000e+001 -2.422346e+001  3.639829e+000
      vertex  2.000000e+001 -2.450000e+001  4.080134e+000
    endloop
  endfacet
  facet normal  1.000000e+000  0.000000e+000  0.000000e+000
    outer loop
      vertex  2.000000e+001 -2.450000e+001  4.080134e+000
      vertex  2.000000e+001 -2.422346e+001  3.639829e+000
      vertex  2.000000e+001 -2.395833e+001  3.588854e+000
    endloop
  endfacet
  facet normal  1.000000e+000  0.000000e+000  0.000000e+000
    outer loop
      vertex  2.000000e+001 -2.400000e+001  5.000000e-001
      vertex  2.000000e+001  2.400000e+001  5.000000e-001
      vertex  2.000000e+001 -2.435355e+001  6.464466e-001
    endloop
  endfacet
  facet normal  9.999999e-001  -0.000000e+000  0.000000e+000
    outer loop
      vertex  2.000000e+001 -2.435355e+001  6.464466e-001
      vertex  2.000000e+001  2.400000e+001  5.000000e-001
      vertex  2.000000e+001  2.435355e+001  6.464466e-001
    endloop
  endfacet
  facet normal  5.087268e-001  2.790813e-001  8.144389e-001
    outer loop
      vertex  1.950000e+001  2.445108e+001  8.986577e+000
      vertex  1.985355e+001  2.392887e+001  8.944680e+000
      vertex  1.985355e+001  2.457786e+001  8.722294e+000
    endloop
  endfacet
  facet normal  8.903152e-001  4.169578e-001  1.829891e-001
    outer loop
      vertex  1.985355e+001  2.457786e+001  8.722294e+000
      vertex  2.000000e+001  2.442589e+001  8.356039e+000
      vertex  1.985355e+001  2.485355e+001  8.094095e+000
    endloop
  endfacet
  facet normal  3.702440e-001  1.775118e-001  9.118163e-001
    outer loop
      vertex  1.950000e+001  2.391667e+001  9.090617e+000
      vertex  1.985355e+001  2.392887e+001  8.944680e+000
      vertex  1.950000e+001  2.445108e+001  8.986577e+000
    endloop
  endfacet
  facet normal  9.185128e-001  3.804590e-001  1.076352e-001
    outer loop
      vertex  2.000000e+001  2.450000e+001  8.094095e+000
      vertex  1.985355e+001  2.485355e+001  8.094095e+000
      vertex  2.000000e+001  2.442589e+001  8.356039e+000
    endloop
  endfacet
  facet normal  9.111196e-001  1.336013e-001  3.898868e-001
    outer loop
      vertex  1.985355e+001  2.392887e+001  8.944680e+000
      vertex  2.000000e+001  2.395833e+001  8.592357e+000
      vertex  1.985355e+001  2.457786e+001  8.722294e+000
    endloop
  endfacet
  facet normal  8.592009e-001  9.777022e-002  5.022099e-001
    outer loop
      vertex  1.985355e+001  2.457786e+001  8.722294e+000
      vertex  2.000000e+001  2.395833e+001  8.592357e+000
      vertex  2.000000e+001  2.422554e+001  8.540337e+000
    endloop
  endfacet
  facet normal  9.306391e-001  2.477418e-001  2.693226e-001
    outer loop
      vertex  1.985355e+001  2.457786e+001  8.722294e+000
      vertex  2.000000e+001  2.422554e+001  8.540337e+000
      vertex  2.000000e+001  2.442589e+001  8.356039e+000
    endloop
  endfacet
  facet normal  3.546398e-001  8.561794e-001  3.757491e-001
    outer loop
      vertex  1.985355e+001  2.485355e+001  8.094095e+000
      vertex  1.950000e+001  2.500000e+001  8.094095e+000
      vertex  1.985355e+001  2.457786e+001  8.722294e+000
    endloop
  endfacet
  facet normal  5.538616e-001  8.011643e-001  2.266565e-001
    outer loop
      vertex  1.985355e+001  2.457786e+001  8.722294e+000
      vertex  1.950000e+001  2.500000e+001  8.094095e+000
      vertex  1.950000e+001  2.485179e+001  8.617983e+000
    endloop
  endfacet
  facet normal  2.938262e-001  6.471201e-001  7.034925e-001
    outer loop
      vertex  1.985355e+001  2.457786e+001  8.722294e+000
      vertex  1.950000e+001  2.485179e+001  8.617983e+000
      vertex  1.950000e+001  2.445108e+001  8.986577e+000
    endloop
  endfacet
  facet normal  9.238800e-001  3.826822e-001  -0.000000e+000
    outer loop
      vertex  2.000000e+001  2.450000e+001  8.094095e+000
      vertex  2.000000e+001  2.450000e+001  1.000000e+000
      vertex  1.985355e+001  2.485355e+001  8.094095e+000
    endloop
  endfacet
  facet normal  9.238800e-001  3.826822e-001  0.000000e+000
    outer loop
      vertex  1.985355e+001  2.485355e+001  8.094095e+000
      vertex  2.000000e+001  2.450000e+001  1.000000e+000
      vertex  1.985355e+001  2.485355e+001  1.000000e+000
    endloop
  endfacet
  facet normal  3.826822e-001  9.238800e-001  -0.000000e+000
    outer loop
      vertex  1.985355e+001  2.485355e+001  8.094095e+000
      vertex  1.985355e+001  2.485355e+001  1.000000e+000
      vertex  1.950000e+001  2.500000e+001  8.094095e+000
    endloop
  endfacet
  facet normal  3.826822e-001  9.238800e-001  0.000000e+000
    outer loop
      vertex  1.950000e+001  2.500000e+001  8.094095e+000
      vertex  1.985355e+001  2.485355e+001  1.000000e+000
      vertex  1.950000e+001  2.500000e+001  1.000000e+000
    endloop
  endfacet
  facet normal  9.124876e-001  3.779633e-001 -1.565571e-001
    outer loop
      vertex  2.000000e+001  2.450000e+001  1.000000e+000
      vertex  2.000000e+001  2.435355e+001  6.464466e-001
      vertex  1.985355e+001  2.485355e+001  1.000000e+000
    endloop
  endfacet
  facet normal  9.124874e-001  3.779637e-001 -1.565577e-001
    outer loop
      vertex  1.985355e+001  2.485355e+001  1.000000e+000
      vertex  2.000000e+001  2.435355e+001  6.464466e-001
      vertex  1.985355e+001  2.460355e+001  3.964466e-001
    endloop
  endfacet
  facet normal  3.574056e-001  8.628566e-001 -3.574069e-001
    outer loop
      vertex  1.985355e+001  2.485355e+001  1.000000e+000
      vertex  1.985355e+001  2.460355e+001  3.964466e-001
      vertex  1.950000e+001  2.500000e+001  1.000000e+000
    endloop
  endfacet
  facet normal  3.574071e-001  8.628564e-001 -3.574059e-001
    outer loop
      vertex  1.950000e+001  2.500000e+001  1.000000e+000
      vertex  1.985355e+001  2.460355e+001  3.964466e-001
      vertex  1.950000e+001  2.470711e+001  2.928932e-001
    endloop
  endfacet
  facet normal  9.124873e-001  1.565575e-001 -3.779638e-001
    outer loop
      vertex  2.000000e+001  2.435355e+001  6.464466e-001
      vertex  2.000000e+001  2.400000e+001  5.000000e-001
      vertex  1.985355e+001  2.460355e+001  3.964466e-001
    endloop
  endfacet
  facet normal  9.124874e-001  1.565576e-001 -3.779637e-001
    outer loop
      vertex  1.985355e+001  2.460355e+001  3.964466e-001
      vertex  2.000000e+001  2.400000e+001  5.000000e-001
      vertex  1.985355e+001  2.400000e+001  1.464466e-001
    endloop
  endfacet
  facet normal  3.574067e-001  3.574066e-001 -8.628563e-001
    outer loop
      vertex  1.985355e+001  2.460355e+001  3.964466e-001
      vertex  1.985355e+001  2.400000e+001  1.464466e-001
      vertex  1.950000e+001  2.470711e+001  2.928932e-001
    endloop
  endfacet
  facet normal  3.574065e-001  3.574065e-001 -8.628565e-001
    outer loop
      vertex  1.950000e+001  2.470711e+001  2.928932e-001
      vertex  1.985355e+001  2.400000e+001  1.464466e-001
      vertex  1.950000e+001  2.400000e+001  0.000000e+000
    endloop
  endfacet
  facet normal  3.826831e-001  0.000000e+000 -9.238797e-001
    outer loop
      vertex  1.950000e+001 -2.400000e+001  0.000000e+000
      vertex  1.950000e+001  2.400000e+001  0.000000e+000
      vertex  1.985355e+001 -2.400000e+001  1.464466e-001
    endloop
  endfacet
  facet normal  3.826831e-001  0.000000e+000 -9.238797e-001
    outer loop
      vertex  1.985355e+001 -2.400000e+001  1.464466e-001
      vertex  1.950000e+001  2.400000e+001  0.000000e+000
      vertex  1.985355e+001  2.400000e+001  1.464466e-001
    endloop
  endfacet
  facet normal  9.238799e-001  0.000000e+000 -3.826826e-001
    outer loop
      vertex  1.985355e+001 -2.400000e+001  1.464466e-001
      vertex  1.985355e+001  2.400000e+001  1.464466e-001
      vertex  2.000000e+001 -2.400000e+001  5.000000e-001
    endloop
  endfacet
  facet normal  9.238799e-001  0.000000e+000 -3.826826e-001
    outer loop
      vertex  2.000000e+001 -2.400000e+001  5.000000e-001
      vertex  1.985355e+001  2.400000e+001  1.464466e-001
      vertex  2.000000e+001  2.400000e+001  5.000000e-001
    endloop
  endfacet
  facet normal  3.826830e-001  -0.000000e+000  9.238797e-001
    outer loop
      vertex  1.950000e+001  2.183304e+001  2.000000e+000
      vertex  1.950000e+001 -2.400000e+001  2.000000e+000
      vertex  1.985355e+001  2.183304e+001  1.853553e+000
    endloop
  endfacet
  facet normal  3.826830e-001  0.000000e+000  9.238797e-001
    outer loop
      vertex  1.985355e+001  2.183304e+001  1.853553e+000
      vertex  1.950000e+001 -2.400000e+001  2.000000e+000
      vertex  1.985355e+001 -2.400000e+001  1.853553e+000
    endloop
  endfacet
  facet normal  9.238799e-001  -0.000000e+000  3.826826e-001
    outer loop
      vertex  1.985355e+001  2.183304e+001  1.853553e+000
      vertex  1.985355e+001 -2.400000e+001  1.853553e+000
      vertex  2.000000e+001  2.183304e+001  1.500000e+000
    endloop
  endfacet
  facet normal  9.238799e-001  0.000000e+000  3.826826e-001
    outer loop
      vertex  2.000000e+001  2.183304e+001  1.500000e+000
      vertex  1.985355e+001 -2.400000e+001  1.853553e+000
      vertex  2.000000e+001 -2.400000e+001  1.500000e+000
    endloop
  endfacet
  facet normal  3.574098e-001 -8.628555e-001  3.574055e-001
    outer loop
      vertex  1.950000e+001  2.283304e+001  3.000000e+000
      vertex  1.950000e+001  2.254015e+001  2.292893e+000
      vertex  1.985355e+001  2.297949e+001  3.000000e+000
    endloop
  endfacet
  facet normal  3.574072e-001 -8.628559e-001  3.574071e-001
    outer loop
      vertex  1.985355e+001  2.297949e+001  3.000000e+000
      vertex  1.950000e+001  2.254015e+001  2.292893e+000
      vertex  1.985355e+001  2.264370e+001  2.189340e+000
    endloop
  endfacet
  facet normal  9.124867e-001 -3.779650e-001  1.565584e-001
    outer loop
      vertex  1.985355e+001  2.297949e+001  3.000000e+000
      vertex  1.985355e+001  2.264370e+001  2.189340e+000
      vertex  2.000000e+001  2.333304e+001  3.000000e+000
    endloop
  endfacet
  facet normal  9.124872e-001 -3.779639e-001  1.565574e-001
    outer loop
      vertex  2.000000e+001  2.333304e+001  3.000000e+000
      vertex  1.985355e+001  2.264370e+001  2.189340e+000
      vertex  2.000000e+001  2.289370e+001  1.939340e+000
    endloop
  endfacet
  facet normal  3.574065e-001 -3.574064e-001  8.628565e-001
    outer loop
      vertex  1.950000e+001  2.254015e+001  2.292893e+000
      vertex  1.950000e+001  2.183304e+001  2.000000e+000
      vertex  1.985355e+001  2.264370e+001  2.189340e+000
    endloop
  endfacet
  facet normal  3.574064e-001 -3.574064e-001  8.628566e-001
    outer loop
      vertex  1.985355e+001  2.264370e+001  2.189340e+000
      vertex  1.950000e+001  2.183304e+001  2.000000e+000
      vertex  1.985355e+001  2.183304e+001  1.853553e+000
    endloop
  endfacet
  facet normal  9.124874e-001 -1.565575e-001  3.779638e-001
    outer loop
      vertex  1.985355e+001  2.264370e+001  2.189340e+000
      vertex  1.985355e+001  2.183304e+001  1.853553e+000
      vertex  2.000000e+001  2.289370e+001  1.939340e+000
    endloop
  endfacet
  facet normal  9.124874e-001 -1.565575e-001  3.779637e-001
    outer loop
      vertex  2.000000e+001  2.289370e+001  1.939340e+000
      vertex  1.985355e+001  2.183304e+001  1.853553e+000
      vertex  2.000000e+001  2.183304e+001  1.500000e+000
    endloop
  endfacet
  facet normal  3.826865e-001 -9.238783e-001  0.000000e+000
    outer loop
      vertex  1.950000e+001  2.283304e+001  5.912885e+000
      vertex  1.950000e+001  2.283304e+001  3.000000e+000
      vertex  1.985355e+001  2.297949e+001  5.912885e+000
    endloop
  endfacet
  facet normal  3.826865e-001 -9.238783e-001  0.000000e+000
    outer loop
      vertex  1.985355e+001  2.297949e+001  5.912885e+000
      vertex  1.950000e+001  2.283304e+001  3.000000e+000
      vertex  1.985355e+001  2.297949e+001  3.000000e+000
    endloop
  endfacet
  facet normal  9.238793e-001 -3.826840e-001  0.000000e+000
    outer loop
      vertex  1.985355e+001  2.297949e+001  5.912885e+000
      vertex  1.985355e+001  2.297949e+001  3.000000e+000
      vertex  2.000000e+001  2.333304e+001  5.912885e+000
    endloop
  endfacet
  facet normal  9.238793e-001 -3.826840e-001  0.000000e+000
    outer loop
      vertex  2.000000e+001  2.333304e+001  5.912885e+000
      vertex  1.985355e+001  2.297949e+001  3.000000e+000
      vertex  2.000000e+001  2.333304e+001  3.000000e+000
    endloop
  endfacet
  facet normal  9.479488e-001 -1.032208e-001 -3.012285e-001
    outer loop
      vertex  2.000000e+001  2.250967e+001  7.251608e+000
      vertex  1.985355e+001  2.173750e+001  7.055345e+000
      vertex  1.985355e+001  2.260919e+001  6.756647e+000
    endloop
  endfacet
  facet normal  1.653765e-001 -9.030887e-001 -3.963349e-001
    outer loop
      vertex  1.985355e+001  2.260919e+001  6.756647e+000
      vertex  1.950000e+001  2.268483e+001  6.436773e+000
      vertex  1.985355e+001  2.297949e+001  5.912885e+000
    endloop
  endfacet
  facet normal  9.185125e-001 -7.555601e-002 -3.881057e-001
    outer loop
      vertex  2.000000e+001  2.170804e+001  7.407668e+000
      vertex  1.985355e+001  2.173750e+001  7.055345e+000
      vertex  2.000000e+001  2.250967e+001  7.251608e+000
    endloop
  endfacet
  facet normal  3.702485e-001 -8.938505e-001 -2.528780e-001
    outer loop
      vertex  1.950000e+001  2.283304e+001  5.912885e+000
      vertex  1.985355e+001  2.297949e+001  5.912885e+000
      vertex  1.950000e+001  2.268483e+001  6.436773e+000
    endloop
  endfacet
  facet normal  3.546403e-001 -3.030929e-001 -8.845140e-001
    outer loop
      vertex  1.985355e+001  2.173750e+001  7.055345e+000
      vertex  1.950000e+001  2.174971e+001  6.909407e+000
      vertex  1.985355e+001  2.260919e+001  6.756647e+000
    endloop
  endfacet
  facet normal  4.039863e-002 -1.909356e-001 -9.807709e-001
    outer loop
      vertex  1.985355e+001  2.260919e+001  6.756647e+000
      vertex  1.950000e+001  2.174971e+001  6.909407e+000
      vertex  1.950000e+001  2.228413e+001  6.805367e+000
    endloop
  endfacet
  facet normal  4.620742e-001 -6.003948e-001 -6.526970e-001
    outer loop
      vertex  1.985355e+001  2.260919e+001  6.756647e+000
      vertex  1.950000e+001  2.228413e+001  6.805367e+000
      vertex  1.950000e+001  2.268483e+001  6.436773e+000
    endloop
  endfacet
  facet normal  9.111190e-001 -3.773985e-001 -1.656274e-001
    outer loop
      vertex  1.985355e+001  2.297949e+001  5.912885e+000
      vertex  2.000000e+001  2.333304e+001  5.912885e+000
      vertex  1.985355e+001  2.260919e+001  6.756647e+000
    endloop
  endfacet
  facet normal  9.541507e-001 -2.880220e-001 -8.148391e-002
    outer loop
      vertex  1.985355e+001  2.260919e+001  6.756647e+000
      vertex  2.000000e+001  2.333304e+001  5.912885e+000
      vertex  2.000000e+001  2.311072e+001  6.698717e+000
    endloop
  endfacet
  facet normal  8.968372e-001 -2.994798e-001 -3.255683e-001
    outer loop
      vertex  1.985355e+001  2.260919e+001  6.756647e+000
      vertex  2.000000e+001  2.311072e+001  6.698717e+000
      vertex  2.000000e+001  2.250967e+001  7.251608e+000
    endloop
  endfacet
  facet normal  3.826836e-001  7.698996e-002 -9.206659e-001
    outer loop
      vertex  1.950000e+001 -2.391667e+001  3.090593e+000
      vertex  1.950000e+001  2.174971e+001  6.909407e+000
      vertex  1.985355e+001 -2.392887e+001  3.236530e+000
    endloop
  endfacet
  facet normal  3.826841e-001  7.698995e-002 -9.206657e-001
    outer loop
      vertex  1.985355e+001 -2.392887e+001  3.236530e+000
      vertex  1.950000e+001  2.174971e+001  6.909407e+000
      vertex  1.985355e+001  2.173750e+001  7.055345e+000
    endloop
  endfacet
  facet normal  9.238800e-001  3.189019e-002 -3.813512e-001
    outer loop
      vertex  1.985355e+001 -2.392887e+001  3.236530e+000
      vertex  1.985355e+001  2.173750e+001  7.055345e+000
      vertex  2.000000e+001 -2.395833e+001  3.588854e+000
    endloop
  endfacet
  facet normal  9.238799e-001  3.189021e-002 -3.813515e-001
    outer loop
      vertex  2.000000e+001 -2.395833e+001  3.588854e+000
      vertex  1.985355e+001  2.173750e+001  7.055345e+000
      vertex  2.000000e+001  2.170804e+001  7.407668e+000
    endloop
  endfacet
  facet normal  5.077912e-001 -2.778372e-001 -8.154474e-001
    outer loop
      vertex  1.950000e+001 -2.444901e+001  3.193586e+000
      vertex  1.985355e+001 -2.392887e+001  3.236530e+000
      vertex  1.985355e+001 -2.457566e+001  3.456903e+000
    endloop
  endfacet
  facet normal  8.909920e-001 -4.146653e-001 -1.848943e-001
    outer loop
      vertex  1.985355e+001 -2.457566e+001  3.456903e+000
      vertex  2.000000e+001 -2.442344e+001  3.821218e+000
      vertex  1.985355e+001 -2.485355e+001  4.080134e+000
    endloop
  endfacet
  facet normal  3.703494e-001 -1.764429e-001 -9.119809e-001
    outer loop
      vertex  1.950000e+001 -2.391667e+001  3.090593e+000
      vertex  1.985355e+001 -2.392887e+001  3.236530e+000
      vertex  1.950000e+001 -2.444901e+001  3.193586e+000
    endloop
  endfacet
  facet normal  9.180209e-001 -3.802553e-001 -1.124437e-001
    outer loop
      vertex  2.000000e+001 -2.450000e+001  4.080134e+000
      vertex  1.985355e+001 -2.485355e+001  4.080134e+000
      vertex  2.000000e+001 -2.442344e+001  3.821218e+000
    endloop
  endfacet
  facet normal  9.112380e-001 -1.328361e-001 -3.898717e-001
    outer loop
      vertex  1.985355e+001 -2.392887e+001  3.236530e+000
      vertex  2.000000e+001 -2.395833e+001  3.588854e+000
      vertex  1.985355e+001 -2.457566e+001  3.456903e+000
    endloop
  endfacet
  facet normal  8.593876e-001 -9.654173e-002 -5.021281e-001
    outer loop
      vertex  1.985355e+001 -2.457566e+001  3.456903e+000
      vertex  2.000000e+001 -2.395833e+001  3.588854e+000
      vertex  2.000000e+001 -2.422346e+001  3.639829e+000
    endloop
  endfacet
  facet normal  9.305319e-001 -2.460388e-001 -2.712474e-001
    outer loop
      vertex  1.985355e+001 -2.457566e+001  3.456903e+000
      vertex  2.000000e+001 -2.422346e+001  3.639829e+000
      vertex  2.000000e+001 -2.442344e+001  3.821218e+000
    endloop
  endfacet
  facet normal  3.537828e-001 -8.542549e-001 -3.809021e-001
    outer loop
      vertex  1.985355e+001 -2.485355e+001  4.080134e+000
      vertex  1.950000e+001 -2.499998e+001  4.080134e+000
      vertex  1.985355e+001 -2.457566e+001  3.456903e+000
    endloop
  endfacet
  facet normal  5.526800e-001 -8.005864e-001 -2.315303e-001
    outer loop
      vertex  1.985355e+001 -2.457566e+001  3.456903e+000
      vertex  1.950000e+001 -2.499998e+001  4.080134e+000
      vertex  1.950000e+001 -2.484934e+001  3.559268e+000
    endloop
  endfacet
  facet normal  2.946052e-001 -6.444978e-001 -7.055711e-001
    outer loop
      vertex  1.985355e+001 -2.457566e+001  3.456903e+000
      vertex  1.950000e+001 -2.484934e+001  3.559268e+000
      vertex  1.950000e+001 -2.444901e+001  3.193586e+000
    endloop
  endfacet
  facet normal  3.826831e-001 -7.698998e-002  9.206662e-001
    outer loop
      vertex  1.950000e+001  2.391667e+001  9.090617e+000
      vertex  1.950000e+001 -2.408333e+001  5.076655e+000
      vertex  1.985355e+001  2.392887e+001  8.944680e+000
    endloop
  endfacet
  facet normal  3.826831e-001 -7.698998e-002  9.206662e-001
    outer loop
      vertex  1.985355e+001  2.392887e+001  8.944680e+000
      vertex  1.950000e+001 -2.408333e+001  5.076655e+000
      vertex  1.985355e+001 -2.407113e+001  4.930718e+000
    endloop
  endfacet
  facet normal  9.238800e-001 -3.189021e-002  3.813515e-001
    outer loop
      vertex  1.985355e+001  2.392887e+001  8.944680e+000
      vertex  1.985355e+001 -2.407113e+001  4.930718e+000
      vertex  2.000000e+001  2.395833e+001  8.592357e+000
    endloop
  endfacet
  facet normal  9.238800e-001 -3.189021e-002  3.813515e-001
    outer loop
      vertex  2.000000e+001  2.395833e+001  8.592357e+000
      vertex  1.985355e+001 -2.407113e+001  4.930718e+000
      vertex  2.000000e+001 -2.404167e+001  4.578395e+000
    endloop
  endfacet
endsolid CATIA STL
